<svg xmlns="http://www.w3.org/2000/svg" viewBox="0 0 220 260">
  <defs>
    <style>
      .green { fill: none; stroke: #228B22; stroke-width: 4; stroke-linecap: round; stroke-linejoin: round; }
      .fill-green { fill: #228B22; }
      .text { font-family: Arial, 'Noto Sans CJK SC', 'Microsoft YaHei', sans-serif; font-weight: 900; fill: #111; }
    </style>
  </defs>

  <!-- Circular emblem -->
  <circle cx="110" cy="92" r="72" class="green" />
  <circle cx="110" cy="92" r="64" class="green" stroke-width="2" />

  <!-- Stylized swirl / monogram -->
  <path class="green" d="M86 56c-11 0-18 8-18 18 0 12 10 18 20 18 12 0 20-7 20-18 0-14-12-24-26-24z" opacity="0.95"/>
  <path class="green" d="M132 56c11 0 18 8 18 18 0 12-10 18-20 18-12 0-20-7-20-18 0-14 12-24 26-24z" opacity="0.95"/>
  <path class="green" d="M76 104c9-16 28-22 42-13 9 6 12 17 8 27-5 12-18 17-30 14-14-3-23-15-20-28z" opacity="0.95"/>
  <path class="green" d="M144 104c-9-16-28-22-42-13-9 6-12 17-8 27 5 12 18 17 30 14 14-3 23-15 20-28z" opacity="0.95"/>

  <!-- Inner accent curves -->
  <path class="green" d="M110 47c0 15-12 25-24 28" stroke-width="3"/>
  <path class="green" d="M110 47c0 15 12 25 24 28" stroke-width="3"/>
  <path class="green" d="M93 88c8-6 18-6 27 0" stroke-width="3"/>
  <path class="green" d="M87 111c7 8 19 10 28 5" stroke-width="3"/>

  <!-- Bottom brand text -->
  <text x="110" y="220" font-size="42" text-anchor="middle" class="text">台瑞</text>
</svg>